<?xml version="1.0" encoding="UTF-8"?>
<svg width="24" height="24" viewBox="0 0 24 24" fill="none" xmlns="http://www.w3.org/2000/svg" aria-labelledby="title">
  <title>GitHub</title>
  <path fill-rule="evenodd" clip-rule="evenodd" d="M12 0.297C5.373 0.297 0 5.67 0 12.297c0 5.286 3.438 9.763 8.207 11.352.6.111.82-.261.82-.58 0-.287-.011-1.244-.017-2.256-3.338.726-4.042-1.414-4.042-1.414-.546-1.387-1.334-1.757-1.334-1.757-1.09-.746.083-.731.083-.731 1.205.085 1.839 1.237 1.839 1.237 1.07 1.834 2.807 1.304 3.492.998.108-.775.419-1.305.762-1.606-2.664-.303-5.467-1.332-5.467-5.93 0-1.31.469-2.381 1.237-3.221-.124-.303-.536-1.523.117-3.176 0 0 1.008-.322 3.301 1.23a11.51 11.51 0 0 1 3.004-.403c1.019.005 2.046.138 3.004.403 2.291-1.552 3.298-1.23 3.298-1.23.655 1.653.243 2.873.119 3.176.77.84 1.236 1.911 1.236 3.221 0 4.61-2.807 5.624-5.479 5.921.43.371.815 1.102.815 2.222 0 1.605-.015 2.899-.015 3.295 0 .321.217.695.826.577C20.565 22.057 24 17.58 24 12.297 24 5.67 18.627 0.297 12 0.297z" fill="#000"/>
</svg>
