<svg width="26" height="26" viewBox="0 0 26 26" xmlns="http://www.w3.org/2000/svg">
  <g fill="#2f3637" transform="translate(0, 4.5)">
    <path d="M9.418 16.847a6.966 6.966 0 01-4.983-2.097L0 10.25l2.653-2.697 4.435 4.5a3.26 3.26 0 004.65 0L15.25 8.48a1.287 1.287 0 011.836 0l1.74 1.77-4.425 4.51a6.954 6.954 0 01-4.983 2.086z"/>
    <path d="M22.94 10.207l-4.436-4.511a3.241 3.241 0 00-4.65 0l-3.512 3.571a1.287 1.287 0 01-1.836 0l-1.74-1.769 4.435-4.51a6.969 6.969 0 019.966 0l4.436 4.51z"/>
  </g>
</svg>
