<svg width="29" height="21" viewBox="0 0 29 21" fill="none" xmlns="http://www.w3.org/2000/svg">
<path d="M29 14.32C28.5655 14.7542 28.1107 15.1686 27.6379 15.5626L17.112 5.16914L22.7409 18.5877C22.1782 18.8335 21.6021 19.0552 21.0139 19.2508L15.4286 5.93611V20.2791C15.1216 20.2926 14.8129 20.3 14.5025 20.3L14.2391 20.2982C14.0172 20.2955 13.7961 20.2888 13.5759 20.2791V5.88893L7.97322 19.2446C7.38516 19.0484 6.80914 18.8264 6.24652 18.58L11.8656 5.18536L1.36087 15.5578C0.888333 15.1638 0.434276 14.7489 0 14.3147L14.4975 0L29 14.32Z" fill="#1E2938"/>
</svg>
