<?xml version="1.0" encoding="UTF-8"?>
<svg width="80px" height="80px" viewBox="0 0 80 80" version="1.1" xmlns="http://www.w3.org/2000/svg" xmlns:xlink="http://www.w3.org/1999/xlink">
    <title>Icon-Architecture/64/Arch_Amazon-Simple-Storage-Service_64</title>
    <defs>
        <linearGradient x1="0%" y1="100%" x2="100%" y2="0%" id="linearGradient-s3">
            <stop stop-color="#1B660F" offset="0%"></stop>
            <stop stop-color="#6CAE3E" offset="100%"></stop>
        </linearGradient>
    </defs>
    <g id="Icon-Architecture/64/Arch_Amazon-Simple-Storage-Service_64" stroke="none" stroke-width="1" fill="none" fill-rule="evenodd">
        <g id="Icon-Architecture-BG/64/Storage" fill="url(#linearGradient-s3)">
            <rect id="Rectangle" x="0" y="0" width="80" height="80"></rect>
        </g>
        <path d="M40.0195312,63 C39.8671875,63 39.7148438,62.965 39.5742188,62.894 L27.3164063,56.705 C27.1210938,56.606 27,56.405 27,56.186 L27,23.815 C27,23.596 27.1210938,23.395 27.3164063,23.296 L39.5742188,17.107 C39.8515625,16.967 40.1875,16.967 40.4648438,17.107 L52.7226563,23.296 C52.9179688,23.395 53.0390625,23.596 53.0390625,23.815 L53.0390625,56.186 C53.0390625,56.405 52.9179688,56.606 52.7226563,56.705 L40.4648438,62.894 C40.3242188,62.965 40.171875,63 40.0195312,63 Z M28.0390625,55.862 L40.0195312,61.913 L52,55.862 L52,24.139 L40.0195312,18.088 L28.0390625,24.139 L28.0390625,55.862 Z M61.9804688,52 C61.828125,52 61.6757813,51.965 61.5351563,51.894 L52.4179688,47.289 L52.8945313,46.343 L61.4609375,50.668 L61.4609375,29.333 L52.8945313,33.658 L52.4179688,32.712 L61.5351563,28.107 C61.8085938,27.967 62.1445313,27.967 62.421875,28.107 L63,28.399 L63,51.601 L62.421875,51.894 C62.2851563,51.965 62.1328125,52 61.9804688,52 Z M27.1445313,47.289 L18.0273438,51.894 C17.8867188,51.965 17.734375,52 17.5820313,52 C17.4296875,52 17.2773438,51.965 17.1367188,51.894 L16.5585938,51.601 L16.5585938,28.399 L17.1367188,28.107 C17.4140625,27.967 17.75,27.967 18.0273438,28.107 L27.1445313,32.712 L26.6679688,33.658 L18.1015625,29.333 L18.1015625,50.668 L26.6679688,46.343 L27.1445313,47.289 Z" id="Amazon-Simple-Storage-Service-S3_Icon_64_Squid" fill="#FFFFFF"></path>
    </g>
</svg>
