<?xml version="1.0" encoding="UTF-8"?>
<svg width="80px" height="80px" viewBox="0 0 80 80" version="1.1" xmlns="http://www.w3.org/2000/svg" xmlns:xlink="http://www.w3.org/1999/xlink">
    <title>Icon-Architecture/64/Arch_Amazon-Simple-Storage-Service_64</title>
    <defs>
        <linearGradient x1="0%" y1="100%" x2="100%" y2="0%" id="linearGradient-s3">
            <stop stop-color="#1B660F" offset="0%"></stop>
            <stop stop-color="#6CAE3E" offset="100%"></stop>
        </linearGradient>
    </defs>
    <g id="Icon-Architecture/64/Arch_Amazon-Simple-Storage-Service_64" stroke="none" stroke-width="1" fill="none" fill-rule="evenodd">
        <g id="Icon-Architecture-BG/64/Storage" fill="url(#linearGradient-s3)">
            <rect id="Rectangle" x="0" y="0" width="80" height="80"></rect>
        </g>
        <path d="M40.0195712,60.9980498 L23.7716932,55.7874498 L23.7716932,24.7965498 L40.0195712,19.0789498 L40.0195712,60.9980498 Z M41.0190712,60.9980498 L41.0190712,19.0789498 L57.2289692,24.7915498 L57.2289692,55.7874498 L41.0190712,60.9980498 Z M66.0005332,28.6953498 L58.2284692,25.8665498 L58.2284692,21.9832498 L66.0005332,19.1534498 L66.0005332,28.6953498 Z M66.0005332,60.8463498 L58.2284692,58.0175498 L58.2284692,54.1342498 L66.0005332,51.3044498 L66.0005332,60.8463498 Z M22.7721932,54.1342498 L22.7721932,58.0175498 L15.0001292,60.8463498 L15.0001292,51.3044498 L22.7721932,54.1342498 Z M22.7721932,25.8665498 L15.0001292,28.6953498 L15.0001292,19.1534498 L22.7721932,21.9832498 L22.7721932,25.8665498 Z M67.0000332,18.0009498 C66.9570532,18.0009498 66.9140732,18.0079498 66.8720932,18.0149498 L57.7287392,21.3439498 L41.2702352,15.5974498 C40.7736612,15.4238498 40.2280292,15.4238498 39.7314552,15.5974498 L23.2729512,21.3439498 L14.1286072,18.0149498 C14.0866272,18.0079498 14.0436472,18.0009498 14.0006672,18.0009498 C13.4490312,18.0009498 13.0006292,18.4484498 13.0006292,18.9999498 L13.0006292,29.6948498 C13.0006292,30.1723498 13.3409212,30.5878498 13.8064832,30.6818498 L22.7721932,32.4937498 L22.7721932,47.5062498 L13.8064832,49.3181498 C13.3409212,49.4121498 13.0006292,49.8276498 13.0006292,50.3051498 L13.0006292,61.0000498 C13.0006292,61.5515498 13.4490312,61.9990498 14.0006672,61.9990498 C14.0436472,61.9990498 14.0866272,61.9920498 14.1286072,61.9850498 L23.2729512,58.6560498 L39.7314552,64.4025498 C39.9797422,64.4895498 40.2400372,64.4895498 40.4883242,64.4895498 C40.7366112,64.4895498 40.9849012,64.4895498 41.2702352,64.4025498 L57.7287392,58.6560498 L66.8720932,61.9850498 C66.9140732,61.9920498 66.9570532,61.9990498 67.0000332,61.9990498 C67.5516692,61.9990498 68.0000712,61.5515498 68.0000712,61.0000498 L68.0000712,50.3051498 C68.0000712,49.8276498 67.6597792,49.4121498 67.1942172,49.3181498 L58.2284692,47.5062498 L58.2284692,32.4937498 L67.1942172,30.6818498 C67.6597792,30.5878498 68.0000712,30.1723498 68.0000712,29.6948498 L68.0000712,18.9999498 C68.0000712,18.4484498 67.5516692,18.0009498 67.0000332,18.0009498 L67.0000332,18.0009498 Z" id="Amazon-Simple-Storage-Service-S3_Icon_64_Squid" fill="#FFFFFF"></path>
    </g>
</svg>
