<?xml version="1.0" encoding="UTF-8"?>
<svg width="80px" height="80px" viewBox="0 0 80 80" version="1.1" xmlns="http://www.w3.org/2000/svg" xmlns:xlink="http://www.w3.org/1999/xlink">
    <title>Icon-Architecture/64/Arch_AWS-CodeBuild_64</title>
    <g id="Icon-Architecture/64/Arch_AWS-CodeBuild_64" stroke="none" stroke-width="1" fill="none" fill-rule="evenodd">
        <g id="Icon-Architecture-BG/64/Developer-Tools" fill="#C925D1">
            <rect id="Rectangle" x="0" y="0" width="80" height="80"></rect>
        </g>
        <path d="M45.042,55.274 L39.564,52.398 L39.564,47.602 L45.042,44.726 L50.519,47.602 L50.519,52.398 L45.042,55.274 Z M45.042,42.584 C44.854,42.584 44.668,42.63 44.5,42.718 L37.683,46.297 C37.341,46.477 37.126,46.832 37.126,47.22 L37.126,52.78 C37.126,53.168 37.341,53.523 37.683,53.703 L44.5,57.282 C44.835,57.459 45.248,57.459 45.583,57.282 L52.4,53.703 C52.742,53.523 52.957,53.168 52.957,52.78 L52.957,47.22 C52.957,46.832 52.742,46.477 52.4,46.297 L45.583,42.718 C45.416,42.63 45.229,42.584 45.042,42.584 L45.042,42.584 Z M30,31 L35,31 L35,29 L30,29 L30,31 Z M62.535,35 L18.465,35 C16.555,35 15,33.446 15,31.536 L15,31 L27,31 L27,29 L15,29 L15,18.464 C15,16.554 16.555,15 18.465,15 L62.535,15 C64.445,15 66,16.554 66,18.464 L66,29 L38,29 L38,31 L66,31 L66,31.536 C66,33.446 64.445,35 62.535,35 L62.535,35 Z M22,66 L58,66 L58,37 L22,37 L22,66 Z M62.535,13 L18.465,13 C15.451,13 13,15.451 13,18.464 L13,31.536 C13,34.549 15.451,37 18.465,37 L20,37 L20,67 C20,67.552 20.447,68 21,68 L59,68 C59.553,68 60,67.552 60,67 L60,37 L62.535,37 C65.549,37 68,34.549 68,31.536 L68,18.464 C68,15.451 65.549,13 62.535,13 L62.535,13 Z" id="AWS-CodeBuild_Icon_64_Squid" fill="#FFFFFF"></path>
    </g>
</svg>
