<svg class="img-fluid" id="outputsvg" xmlns="http://www.w3.org/2000/svg" style="transform: none; transform-origin: 50% 50%; cursor: move; max-height: none;" width="360" height="360" viewBox="0 0 3600 3600"><defs><linearGradient id="lg1s2AEb0r3Fdtiu" gradientUnits="userSpaceOnUse" x1="0.2777778%" y1="21.38889%" x2="99.72222%" y2="78.611115%"><stop offset="0%" style="stop-color:rgb(245,101,107);"></stop><stop offset="100%" style="stop-color:rgb(251,172,106);"></stop></linearGradient></defs><g id="l4Q74v7lMGyh0lCSZhAZfUk" fill="rgb(248,109,92)" style="transform: none;"><g style="transform: none;"><path id="p11qGCxInl" d="M1085 3590 c-376 -13 -527 -57 -719 -210 -178 -141 -294 -339 -331 -563 -26 -152 -38 -625 -31 -1252 3 -319 10 -625 16 -680 22 -212 74 -353 183 -497 143 -190 346 -314 580 -353 152 -26 625 -38 1252 -31 319 3 625 10 680 16 212 22 353 74 497 183 190 143 314 346 353 580 26 152 38 625 31 1252 -3 319 -10 625 -16 680 -22 212 -74 353 -183 497 -143 190 -346 314 -580 353 -51 9 -204 20 -342 25 -285 10 -1077 10 -1390 0z m-63 -1176 c150 -49 296 -170 375 -311 140 -252 103 -530 -102 -752 -79 -86 -225 -168 -340 -191 -33 -6 -68 -14 -77 -16 -17 -5 -18 31 -18 651 l0 657 43 -7 c23 -3 77 -18 119 -31z m1360 17 c232 -60 410 -227 485 -456 109 -334 -113 -713 -477 -811 -281 -76 -603 87 -736 373 -61 130 -78 261 -48 382 50 202 182 371 359 459 148 73 275 89 417 53z" fill="url(#lg1s2AEb0r3Fdtiu)"></path></g></g><g id="l2GV6QMeEqekPARsjGEEcyW" fill="rgb(255,255,255)" style="transform: none;"><g style="transform: none;"><path id="pjnzvH2Fd" d="M830 1796 l0 -686 29 0 c53 0 185 32 247 60 89 40 175 102 230 164 202 228 236 538 90 800 -105 188 -316 325 -525 343 l-71 6 0 -687z"></path><path id="p162l4iJTw" d="M2120 2473 c-46 -8 -124 -35 -185 -65 -225 -112 -375 -354 -375 -605 0 -306 187 -564 477 -659 77 -25 103 -29 203 -29 78 1 136 7 180 19 229 62 410 237 481 466 20 63 24 95 23 200 0 107 -4 137 -27 205 -76 229 -253 397 -485 456 -71 18 -220 24 -292 12z"></path></g></g></svg>