<svg xmlns="http://www.w3.org/2000/svg" viewBox="0 0 64 64">
  <path d="M32 2C15.43 2 2 15.43 2 32s13.43 30 30 30 30-13.43 30-30S48.57 2 32 2z" fill="#fff"/>
  <path d="M38.5 24.5H17.8c-.7 2.3-1.1 4.8-1.1 7.3 0 2.6.4 5 1.1 7.3h20.7c3.2 0 5.8-3.3 5.8-7.3s-2.6-7.3-5.8-7.3z" fill="#00BFB3"/>
  <path d="M16.6 21.2h22.1c1.5-2.4 4.2-4 7.2-4 .7 0 1.4.1 2.1.3C44.3 11.7 38.6 8 32 8c-6.1 0-11.5 3.2-14.6 8-.7 1.6-1.2 3.3-1.4 5-.1.1 0 .2.6.2z" fill="#FEC514"/>
  <path d="M16.6 42.8c.2 1.7.7 3.4 1.4 5C21.1 52.8 26.5 56 32 56c6.6 0 12.3-3.7 15.4-9.2-.7.2-1.4.3-2.1.3-3 0-5.7-1.6-7.2-4H16.6z" fill="#F04E98"/>
  <path d="M48.4 27.2c-.6-1.9-1.6-3.6-2.9-5.1-.7-.1-1.3-.1-2-.1-3.2 0-6 1.9-7.3 4.7h11.4c.3.1.6.3.8.5z" fill="#07C"/>
  <path d="M36.2 37.3c1.3 2.8 4.1 4.7 7.3 4.7.7 0 1.3 0 2-.1 1.3-1.5 2.3-3.2 2.9-5.1-.2.2-.5.3-.8.4H36.2z" fill="#93C90E"/>
</svg>
