<svg viewBox="0 0 512 512" xmlns="http://www.w3.org/2000/svg" fill-rule="evenodd" clip-rule="evenodd" stroke-linejoin="round" stroke-miterlimit="2"><path d="M506.001 268.102c0-41.869-25.895-78.655-65.102-92.692 1.694-8.954 2.42-17.667 2.42-26.863 0-77.929-63.407-141.336-141.094-141.336-45.74 0-87.85 21.78-114.472 58.567-13.07-10.165-29.042-15.731-45.741-15.731-41.384 0-75.024 33.64-75.024 75.024 0 9.197 1.694 17.91 4.598 26.138C32.622 165.246 6 202.516 6 244.142c0 42.11 26.138 78.897 65.344 92.934-1.694 8.712-2.42 17.667-2.42 26.863 0 77.687 63.165 140.852 140.852 140.852 45.74 0 87.851-22.023 114.23-58.81 13.07 10.408 29.042 15.974 45.741 15.974 41.385 0 75.024-33.64 75.024-75.024 0-9.197-1.694-17.91-4.598-26.138 39.206-13.795 65.828-51.065 65.828-92.691" fill="#fff" fill-rule="nonzero"/><path d="M202.757 221.635l109.39 49.855 110.36-96.806c1.693-7.986 2.42-15.73 2.42-24.201 0-68.006-55.422-123.427-123.428-123.427-40.658 0-78.654 20.087-101.646 53.727l-18.393 95.111 21.297 45.741z" fill="#fed10a" fill-rule="nonzero"/><path d="M89.495 337.318c-1.694 7.986-2.42 16.215-2.42 24.685 0 68.248 55.663 123.67 123.669 123.67 40.9 0 79.139-20.33 102.13-53.97l18.15-94.87-24.2-46.466-109.875-50.097-107.454 97.048z" fill="#24bbb1" fill-rule="nonzero"/><path d="M89.01 148.063l75.025 17.667 16.457-85.19a59.185 59.185 0 00-35.818-12.1c-32.43 0-59.051 26.38-59.051 59.052-.242 7.26.968 14.278 3.388 20.57" fill="#ef5098" fill-rule="nonzero"/><path d="M82.477 165.972c-33.398 10.89-56.874 43.078-56.874 78.412 0 34.366 21.297 65.102 53.243 77.203l105.034-94.87-19.119-41.142-82.284-19.603z" fill="#17a8e0" fill-rule="nonzero"/><path d="M332.235 431.461c10.407 7.745 22.75 12.343 35.576 12.343 32.43 0 59.051-26.38 59.051-59.052 0-7.26-1.21-14.036-3.63-20.57l-74.782-17.426-16.215 84.705z" fill="#93c83e" fill-rule="nonzero"/><path d="M347.482 326.911l82.285 19.12c33.64-10.891 56.873-43.08 56.873-78.655 0-34.124-21.297-65.102-53.243-77.203L325.7 284.56l21.78 42.352z" fill="#0779a1" fill-rule="nonzero"/></svg>
