<svg xmlns="http://www.w3.org/2000/svg" viewBox="0 0 512 512">
  <path fill="#FF4F3E" d="M256 32c-17.7 0-32 14.3-32 32v96h-48c-26.5 0-48 21.5-48 48v16h-16c-17.7 0-32 14.3-32 32v32c0 17.7 14.3 32 32 32h16v16c0 26.5 21.5 48 48 48h16v96c0 17.7 14.3 32 32 32h64c17.7 0 32-14.3 32-32v-96h16c26.5 0 48-21.5 48-48v-16h16c17.7 0 32-14.3 32-32v-32c0-17.7-14.3-32-32-32h-16v-16c0-26.5-21.5-48-48-48h-48V64c0-17.7-14.3-32-32-32zm-64 176c0-8.8 7.2-16 16-16h96c8.8 0 16 7.2 16 16v160c0 8.8-7.2 16-16 16h-96c-8.8 0-16-7.2-16-16V208zm48 32c0 8.8 7.2 16 16 16s16-7.2 16-16-7.2-16-16-16-16 7.2-16 16z"/>
</svg>
