<?xml version="1.0" encoding="UTF-8"?>
<svg version="1.1" xmlns="http://www.w3.org/2000/svg" width="640" height="640">
<path d="M0 0 C2.45312129 0.01006442 4.90624664 0.01918406 7.359375 0.02734375 C13.28134096 0.0490494 19.20315047 0.08224471 25.125 0.125 C22.15991588 3.31017514 18.76051734 4.91087355 14.875 6.75 C2.08137476 12.99395296 -9.75406998 20.19672757 -20.875 29.125 C-21.71611328 29.79571533 -21.71611328 29.79571533 -22.57421875 30.47998047 C-44.34660577 47.98079818 -60.18464664 71.08386437 -64.625 99.125 C-64.7394963 100.45601947 -64.81769601 101.79029461 -64.875 103.125 C-64.9265625 104.18589844 -64.978125 105.24679688 -65.03125 106.33984375 C-65.4569007 123.24172375 -60.98233732 139.38481377 -56.78125 155.62109375 C-56.27599699 157.59321799 -55.77130718 159.56548659 -55.26713562 161.53788757 C-53.92170404 166.79502115 -52.56858504 172.05014692 -51.21392441 177.30490875 C-49.80374993 182.78069655 -48.40091407 188.25836379 -46.99731445 193.73583984 C-44.44365851 203.69703095 -41.88396933 213.65665906 -39.32131863 223.61553955 C-36.5885826 234.2360193 -33.86215396 244.85811353 -31.13671875 255.48046875 C-30.26569249 258.8750987 -29.39460585 262.26971315 -28.5234375 265.66430664 C-28.3161521 266.47201476 -28.10886669 267.27972288 -27.89529991 268.11190701 C-26.50357617 273.53396146 -25.10977842 278.95547979 -23.71484375 284.37670898 C-17.61721905 308.0757358 -17.61721905 308.0757358 -15.44140625 316.703125 C-15.1585376 317.82364258 -14.87566895 318.94416016 -14.58422852 320.09863281 C-6.45064036 354.80567542 -14.50848279 390.10094701 -32.875 420.125 C-50.12240704 446.59577206 -74.54645021 466.7433182 -101.875 482.125 C-102.49036621 482.47981445 -103.10573242 482.83462891 -103.73974609 483.20019531 C-168.12978171 520.16024149 -249.7201099 529.79344486 -322.875 528.125 C-321.39391127 524.6715583 -319.44678301 522.47578674 -316.76953125 519.859375 C-315.95033203 519.05113281 -315.13113281 518.24289062 -314.28710938 517.41015625 C-313.42923828 516.57355469 -312.57136719 515.73695313 -311.6875 514.875 C-304.83489456 508.1998352 -304.83489456 508.1998352 -298.38671875 501.140625 C-293.35933641 495.27473426 -287.75738651 489.96436581 -282.2578125 484.546875 C-278.52000043 480.84314632 -274.8302513 477.15428694 -271.40625 473.15625 C-266.17615149 467.05650982 -260.33084983 461.53904148 -254.61328125 455.90234375 C-250.12409493 451.45202485 -245.80037376 446.96222804 -241.68945312 442.16210938 C-237.13702359 437.05103941 -232.13175326 432.34807037 -227.2578125 427.546875 C-223.52000043 423.84314632 -219.8302513 420.15428694 -216.40625 416.15625 C-211.17615149 410.05650982 -205.33084983 404.53904148 -199.61328125 398.90234375 C-195.12409493 394.45202485 -190.80037376 389.96222804 -186.68945312 385.16210938 C-182.13702359 380.05103941 -177.13175326 375.34807037 -172.2578125 370.546875 C-168.52000043 366.84314632 -164.8302513 363.15428694 -161.40625 359.15625 C-156.17615149 353.05650982 -150.33084983 347.53904148 -144.61328125 341.90234375 C-140.07607949 337.40442513 -135.71765374 332.86225242 -131.56835938 328.00585938 C-129.76233982 325.99986534 -127.85773387 324.17469563 -125.875 322.34375 C-125.21628906 321.72886719 -124.55757812 321.11398437 -123.87890625 320.48046875 C-122.5260539 319.22782769 -121.15833596 317.9910793 -119.77734375 316.76953125 C-119.12894531 316.15464844 -118.48054687 315.53976562 -117.8125 314.90625 C-117.22339844 314.37064453 -116.63429688 313.83503906 -116.02734375 313.28320312 C-113.37733832 308.32005737 -116.3932501 300.8160869 -117.9128418 295.75708008 C-118.11792862 295.06787979 -118.32301544 294.3786795 -118.53431702 293.66859436 C-119.20834742 291.40874875 -119.89126653 289.15169492 -120.57421875 286.89453125 C-121.05225404 285.29735242 -121.52968503 283.6999926 -122.00654602 282.10246277 C-123.26293795 277.89868783 -124.52670096 273.69716643 -125.79229736 269.49615479 C-127.79772426 262.83401826 -129.7910872 256.16825251 -131.78659439 249.5031395 C-132.50621845 247.10039612 -133.22670932 244.69791377 -133.94723511 242.29544067 C-137.3521435 230.93214343 -140.67400098 219.5476202 -143.875 208.125 C-147.6220802 211.29614313 -151.33579052 214.45963474 -154.8125 217.9296875 C-155.48023438 218.59613281 -156.14796875 219.26257813 -156.8359375 219.94921875 C-157.50882813 220.62597656 -158.18171875 221.30273438 -158.875 222 C-159.54789063 222.66902344 -160.22078125 223.33804688 -160.9140625 224.02734375 C-164.15438472 227.27392142 -167.29231162 230.55891066 -170.28125 234.0390625 C-175.15435064 239.68705244 -180.53463475 244.82950624 -185.84765625 250.05859375 C-189.46317605 253.63929313 -193.01792029 257.21466281 -196.33203125 261.078125 C-200.64608672 266.10304053 -205.3596282 270.71704909 -210.0625 275.375 C-210.95130859 276.25929688 -211.84011719 277.14359375 -212.75585938 278.0546875 C-214.4014254 279.69159916 -216.04802431 281.32747368 -217.69604492 282.96191406 C-219.76059365 285.01142687 -221.81927286 287.06664293 -223.875 289.125 C-225.85333987 283.96480318 -227.66454065 278.79676845 -229.26000977 273.50439453 C-229.47847061 272.7873082 -229.69693146 272.07022186 -229.92201233 271.33140564 C-230.63936555 268.97430923 -231.3529628 266.61609498 -232.06640625 264.2578125 C-232.57606302 262.57944206 -233.08590891 260.90112903 -233.59593201 259.22286987 C-234.66755269 255.6946445 -235.73740646 252.1658899 -236.8059082 248.63671875 C-238.14205244 244.22376256 -239.48170772 239.81188265 -240.82248878 235.4003334 C-243.42901542 226.82365647 -246.02160572 218.24292691 -248.60050392 209.65790176 C-250.11250323 204.63204238 -251.64572648 199.61327226 -253.19642353 194.59922218 C-254.17156578 191.43765875 -255.1340255 188.27232622 -256.09382439 185.10607529 C-256.5449741 183.62832113 -257.00171999 182.15226242 -257.46438789 180.67807388 C-258.09771593 178.65787978 -258.71106958 176.63261808 -259.32006836 174.60498047 C-259.67032578 173.46850067 -260.02058319 172.33202087 -260.38145447 171.16110229 C-261.05347941 167.02706329 -259.9153134 164.73822389 -257.70507812 161.31079102 C-257.27646484 160.75576904 -256.84785156 160.20074707 -256.40625 159.62890625 C-255.92293213 158.9954126 -255.43961426 158.36191895 -254.94165039 157.70922852 C-254.42465576 157.04205811 -253.90766113 156.3748877 -253.375 155.6875 C-252.27857968 154.25104332 -251.18354895 152.81352503 -250.08984375 151.375 C-249.54440918 150.65828125 -248.99897461 149.9415625 -248.43701172 149.203125 C-246.20978994 146.23999406 -244.07064527 143.21867255 -241.9375 140.1875 C-236.14165347 131.99523732 -230.02036236 124.05669501 -223.875 116.125 C-223.38854004 115.49529297 -222.90208008 114.86558594 -222.40087891 114.21679688 C-213.69074898 102.95655286 -204.62483053 92.04328718 -195.04296875 81.51171875 C-193.59714724 79.92001254 -192.16219249 78.31836774 -190.73828125 76.70703125 C-181.49491493 66.26883122 -171.85241449 56.74168019 -160.875 48.125 C-159.75928197 47.22014734 -158.64475097 46.31382956 -157.53125 45.40625 C-150.00119112 39.31138861 -142.31223479 33.92714497 -133.875 29.125 C-133.25850586 28.76696289 -132.64201172 28.40892578 -132.00683594 28.04003906 C-110.33620308 15.54066953 -85.90483241 8.28873045 -61.375 3.875 C-60.54750244 3.72385742 -59.72000488 3.57271484 -58.86743164 3.41699219 C-39.32520675 0.14796335 -19.76220391 -0.14320438 0 0 Z " fill="#FB8D57" transform="translate(596.875,55.875)"/>
<path d="M0 0 C1.7578112 0.00503252 3.51562383 0.00959229 5.2734375 0.01367188 C9.51566106 0.02452149 13.75781411 0.04168614 18 0.0625 C13.78263014 5.08989417 9.36281328 9.75953227 4.66015625 14.33984375 C2.60586611 16.44239915 0.68871665 18.55845956 -1.22265625 20.78515625 C-6.16702757 26.49009708 -11.59552151 31.70390584 -16.97265625 36.99609375 C-21.2347238 41.2171141 -25.30658559 45.50218391 -29.21289062 50.05273438 C-33.35056164 54.7059185 -37.89008232 58.98798362 -42.328125 63.3515625 C-45.83092927 66.81862387 -49.25763721 70.29054602 -52.46875 74.03125 C-57.31296029 79.66794631 -62.67931072 84.78637138 -67.97265625 89.99609375 C-71.60339172 93.59186227 -75.17057357 97.18396956 -78.5 101.0625 C-83.33132386 106.69062757 -88.68997378 111.79686598 -93.97265625 116.99609375 C-97.60339172 120.59186227 -101.17057357 124.18396956 -104.5 128.0625 C-109.33132386 133.69062757 -114.68997378 138.79686598 -119.97265625 143.99609375 C-123.60339172 147.59186227 -127.17057357 151.18396956 -130.5 155.0625 C-135.33132386 160.69062757 -140.68997378 165.79686598 -145.97265625 170.99609375 C-149.60339172 174.59186227 -153.17057357 178.18396956 -156.5 182.0625 C-161.33132386 187.69062757 -166.68997378 192.79686598 -171.97265625 197.99609375 C-176.34568078 202.32700248 -180.54668783 206.70501486 -184.49755859 211.42675781 C-186 213.0625 -186 213.0625 -189.125 215.3125 C-191.28105681 217.82318536 -191.28105681 217.82318536 -190.71925354 220.30429077 C-190.46844528 221.2188504 -190.21763702 222.13341003 -189.95922852 223.07568359 C-189.66629913 224.15372253 -189.37336975 225.23176147 -189.07156372 226.34246826 C-188.71794769 227.57007874 -188.36433167 228.79768921 -188 230.0625 C-187.80818523 230.72906868 -187.61637047 231.39563736 -187.41874313 232.08240509 C-186.07277699 236.73862747 -184.69134819 241.38386851 -183.2992382 246.02647781 C-182.5101424 248.6589472 -181.72475999 251.29249996 -180.94032288 253.92636108 C-178.71203873 261.40590124 -176.47747201 268.88355812 -174.23999023 276.36035156 C-172.86463141 280.95718995 -171.49368063 285.55532501 -170.12530708 290.15424728 C-169.60675431 291.89371836 -169.08650782 293.63268553 -168.56446648 295.37111282 C-166.00754979 303.88631176 -163.51555743 312.28681715 -162 321.0625 C-156.67731424 316.53734281 -151.76944622 311.84793938 -147.0625 306.6875 C-140.84105064 299.95024983 -134.44090804 293.42446544 -127.89868164 286.99853516 C-124.67133192 283.81128882 -121.54947025 280.59831124 -118.59375 277.15625 C-113.72388542 271.50234827 -108.3419987 266.35960141 -103.02734375 261.12890625 C-98.68333273 256.82673161 -94.48904875 252.47300818 -90.52075195 247.8203125 C-88.14262929 245.07147911 -85.66236393 242.53911761 -83 240.0625 C-82.34 240.0625 -81.68 240.0625 -81 240.0625 C-76.8877447 252.18142713 -73.02993131 264.35315939 -69.375 276.6171875 C-68.86010888 278.33724191 -68.34496628 280.05722107 -67.82958984 281.77713013 C-66.48801848 286.25657104 -65.14974834 290.73699114 -63.81225586 295.21765137 C-62.46536645 299.72772694 -61.11538415 304.23687636 -59.765625 308.74609375 C-58.23784652 313.85078846 -56.71035927 318.95556893 -55.18505859 324.06100464 C-54.95311798 324.83698565 -54.72117737 325.61296665 -54.48220825 326.41246223 C-54.02386928 327.94749192 -53.56639607 329.4827804 -53.10983276 331.01833916 C-51.86816505 335.18846669 -50.6044872 339.35066431 -49.31542969 343.50640869 C-48.8981813 344.86358096 -48.8981813 344.86358096 -48.47250366 346.24817085 C-47.9363951 347.990448 -47.39486903 349.73107047 -46.84707642 351.4697094 C-43.93124946 360.99029236 -43.93124946 360.99029236 -45.91113281 364.82910156 C-46.33749023 365.3650293 -46.76384766 365.90095703 -47.203125 366.453125 C-47.68249512 367.07106934 -48.16186523 367.68901367 -48.65576172 368.32568359 C-49.18186035 368.98133301 -49.70795898 369.63698242 -50.25 370.3125 C-51.36427594 371.74561299 -52.47618641 373.18056777 -53.5859375 374.6171875 C-54.15666992 375.35291992 -54.72740234 376.08865234 -55.31542969 376.84667969 C-57.94285959 380.30270198 -60.40398023 383.86889644 -62.875 387.4375 C-68.74347174 395.84552164 -74.99818904 403.92270829 -81.35107422 411.96826172 C-82.8802983 413.91047139 -84.39779853 415.86105049 -85.91015625 417.81640625 C-95.09866627 429.67080931 -104.87248744 441.00089647 -115 452.0625 C-115.50176758 452.61470215 -116.00353516 453.1669043 -116.52050781 453.73583984 C-122.72950185 460.56278189 -128.8922879 467.15841116 -136 473.0625 C-137.01398074 473.95838383 -138.02547089 474.85709043 -139.03515625 475.7578125 C-179.82532648 511.90137357 -234.16616598 528.40456488 -288.203125 528.16015625 C-290.00882965 528.15803383 -290.00882965 528.15803383 -291.85101318 528.15586853 C-295.65070203 528.15032463 -299.45032932 528.13778295 -303.25 528.125 C-305.84505123 528.11997774 -308.44010338 528.11541611 -311.03515625 528.11132812 C-317.35679141 528.10037365 -323.67839131 528.08369249 -330 528.0625 C-328.37295096 524.80840192 -324.83291228 524.0899862 -321.625 522.6875 C-306.57804091 515.84534368 -292.69232246 506.62557309 -280 496.0625 C-279.4942041 495.64178223 -278.9884082 495.22106445 -278.46728516 494.78759766 C-257.27738037 476.92686384 -242.84848267 452.81332053 -240 425.0625 C-238.88617947 408.35519209 -242.88501895 392.73088835 -247.07421875 376.73046875 C-247.59252456 374.72793397 -248.11015065 372.72522316 -248.62715149 370.72235107 C-249.73099715 366.45191752 -250.83955001 362.18274533 -251.9519043 357.91452026 C-253.70434174 351.18992178 -255.44564837 344.46247101 -257.18554688 337.73461914 C-260.78038687 323.84131749 -264.38911268 309.95163814 -268 296.0625 C-269.14931788 291.64129335 -270.29856239 287.22006763 -271.44775391 282.79882812 C-271.72581407 281.72910861 -272.00387423 280.6593891 -272.29036045 279.55725384 C-274.43807108 271.29374061 -276.58252552 263.02938542 -278.72515774 254.76455402 C-280.22480169 248.9816707 -281.72985636 243.20023168 -283.23933697 237.41990852 C-284.17416137 233.83619815 -285.1047254 230.25139104 -286.03423119 226.66629791 C-286.46113819 225.02344489 -286.88982548 223.38105319 -287.3205204 221.73918915 C-290.9863243 207.75924344 -293.39568906 194.57362888 -293.375 180.0625 C-293.37412384 179.38441284 -293.37324768 178.70632568 -293.37234497 178.00769043 C-293.20507632 138.57859208 -275.04126036 105.19505697 -247.64453125 77.65917969 C-243.67390192 73.8040853 -239.39462689 70.41465148 -235 67.0625 C-234.030625 66.27746094 -233.06125 65.49242188 -232.0625 64.68359375 C-223.21506291 57.61670338 -213.81101743 51.70040352 -204 46.0625 C-203.26571777 45.6396875 -202.53143555 45.216875 -201.77490234 44.78125 C-151.81052322 16.4012166 -92.73467287 5.43995288 -36 1.0625 C-34.77748535 0.96606201 -33.5549707 0.86962402 -32.29541016 0.77026367 C-21.52320597 0.00236152 -10.79570451 -0.05461744 0 0 Z " fill="#FF5300" transform="translate(348,55.9375)"/>
</svg>
