<svg xmlns="http://www.w3.org/2000/svg" viewBox="0 0 24 24" fill="none">
  <path d="M12 2C6.48 2 2 6.48 2 12s4.48 10 10 10 10-4.48 10-10S17.52 2 12 2z" fill="#FF4F3E"/>
  <path d="M12 5.5c-.83 0-1.5.67-1.5 1.5v2.5H9c-.55 0-1 .45-1 1s.45 1 1 1h1.5V14c0 .55.45 1 1 1h1c.55 0 1-.45 1-1v-2.5H15c.55 0 1-.45 1-1s-.45-1-1-1h-1.5V7c0-.83-.67-1.5-1.5-1.5z" fill="#fff"/>
  <path d="M8 15.5c0 .28.22.5.5.5h7c.28 0 .5-.22.5-.5v-1c0-.28-.22-.5-.5-.5h-7c-.28 0-.5.22-.5.5v1z" fill="#fff"/>
  <path d="M9 17.5c0 .28.22.5.5.5h5c.28 0 .5-.22.5-.5v-.5c0-.28-.22-.5-.5-.5h-5c-.28 0-.5.22-.5.5v.5z" fill="#fff"/>
</svg>
