<svg xmlns="http://www.w3.org/2000/svg" viewBox="0 0 24 24">
  <path fill="#e24329" d="M22.65 14.39L12 22.13 1.35 14.39a.84.84 0 0 1-.3-.94l.32-1.23.03-.1C2.52 7.7 5.2 2.62 5.2 2.62a.84.84 0 0 1 1.6 0l2.5 7.68h5.4l2.5-7.68a.84.84 0 0 1 1.6 0s2.68 5.08 3.8 9.5l.03.11.32 1.23a.84.84 0 0 1-.3.93Z"/>
  <path fill="#fc6d26" d="m5.2 2.62 5.06 15.54L1.35 14.39a.84.84 0 0 1-.3-.94L2.52 7.7a284.58 284.58 0 0 0 2.68-5.08Zm13.6 0-5.06 15.54 8.91-3.77a.84.84 0 0 0 .3-.94l-1.47-5.74a284.58 284.58 0 0 0-2.68-5.09Z"/>
  <path fill="#fca326" d="M12 22.13 7.75 9.09h8.5L12 22.13Z"/>
</svg>