<svg width="26" height="26" viewBox="0 0 108 108" fill="none" xmlns="http://www.w3.org/2000/svg">
  <path fill-rule="evenodd" clip-rule="evenodd" d="M37.2516 7.42286C44.1892 0.582838 52.7382 -1.64873 61.3483 1.22366C65.1885 2.53639 68.707 4.64931 71.6714 7.42286L96.9848 32.7772C103.902 39.6998 106.154 48.2773 103.284 56.8944C101.941 60.7468 99.7932 64.2686 96.9848 67.2258L71.527 92.458C69.3746 94.7795 66.7768 96.6433 63.8894 97.939C61.002 99.2347 57.8836 99.9358 54.7199 100C52.2408 99.9865 49.7789 99.5754 47.4302 98.7813C43.5782 97.4343 40.0584 95.2781 37.1071 92.458L11.9158 67.1444C5.0815 60.2012 2.85292 51.6238 5.72277 43.0068C7.0354 39.1642 9.14595 35.6429 11.9158 32.6754L37.2516 7.42286ZM59.6352 13.4166C53.1782 11.2628 46.7676 12.9363 41.5647 18.0655L22.5624 37.0049C20.4847 39.2306 18.9022 41.8723 17.9176 44.7544C15.7651 51.2173 17.4366 57.6501 22.5624 62.8577L41.4549 81.8439C43.6685 83.9591 46.3089 85.5761 49.1982 86.5863C50.9597 87.1819 52.8056 87.4897 54.6649 87.4999C57.0377 87.4517 59.3761 86.9253 61.5416 85.9536C63.7071 84.9818 65.6565 83.5849 67.2708 81.8439L86.3646 62.9187C88.471 60.7007 90.0822 58.0585 91.0888 55.1692C93.2408 48.7066 91.5521 42.274 86.3646 37.0822L67.3786 18.0655C65.1552 15.9855 62.5154 14.401 59.6352 13.4166Z" fill="#0092E4"/>
  <path d="M68.7225 36.1611C69.0908 35.9512 69.5008 36.3612 69.2908 36.7295L67.1724 40.4455C63.6282 46.6627 63.6282 54.2889 67.1724 60.5061L69.2908 64.2222C69.5008 64.5904 69.0908 65.0005 68.7225 64.7905L65.0065 62.6721C58.7893 59.1278 51.1632 59.1278 44.946 62.6721L41.23 64.7905C40.8618 65.0005 40.4518 64.5904 40.6617 64.2222L42.7801 60.5061C46.3244 54.2889 46.3244 46.6627 42.7801 40.4455L40.6617 36.7295C40.4518 36.3612 40.8618 35.9512 41.23 36.1611L44.946 38.2795C51.1632 41.8239 58.7893 41.8239 65.0065 38.2795L68.7225 36.1611Z" fill="#0092E4"/>
</svg>
