<svg xmlns="http://www.w3.org/2000/svg" viewBox="-2.5 -2.5 29 29" width="24" height="24">
  <path fill="#00ABE4" d="M22.0078 7.85733L16.0128 1.80352C15.3028 1.1266 14.4572 0.611142 13.5329 0.291925C11.4847 -0.395839 9.44626 0.141009 7.79544 1.80352L1.78573 7.85733C1.11457 8.57337 0.603491 9.42629 0.286987 10.3585C-0.397383 12.4243 0.134905 14.4802 1.78573 16.1427L7.78808 22.1965C8.4969 22.8736 9.34183 23.3892 10.2655 23.7081C10.8251 23.8989 11.4115 23.9974 12.0022 24C13.4421 24 14.8207 23.3865 16.003 22.1965L22.0029 16.1427C22.6749 15.4269 23.1868 14.5739 23.5041 13.6415C24.186 11.5757 23.6537 9.52231 22.0029 7.85733H22.0078ZM12.3579 3.56004C12.8113 3.70666 13.2292 3.94772 13.5844 4.2676L15.3578 6.05875L11.8992 9.54458L8.44056 6.05628L10.2238 4.25522C10.7022 3.77527 11.3767 3.26563 12.3628 3.55756L12.3579 3.56004ZM3.53223 11.5312C3.67806 11.0735 3.91795 10.652 4.23622 10.2942L6.0097 8.50551L9.46834 11.9938L6.00724 15.4821L4.22396 13.6811C3.74563 13.2011 3.24278 12.5208 3.52977 11.5262L3.53223 11.5312ZM11.4356 20.4325C10.9816 20.2872 10.5635 20.046 10.2091 19.725L8.44056 17.9561L11.8992 14.4653L15.3578 17.9536L13.5746 19.7547C13.0962 20.2346 12.4241 20.7442 11.4356 20.4523V20.4325ZM20.2662 12.4787C20.1204 12.9359 19.8814 13.3572 19.5646 13.7157L17.7912 15.4821L14.3325 11.9938L17.7912 8.50551L19.5745 10.3041C20.0528 10.784 20.5556 11.4644 20.2686 12.4589"/>
</svg>
