<svg id="Capa_1" data-name="Capa 1" xmlns="http://www.w3.org/2000/svg" viewBox="0 0 512 498"><defs><style>.cls-1{fill:#fefefd;}.cls-2{fill:#20bcbd;}.cls-3{fill:#f6941e;}.cls-4{fill:#fcb714;}.cls-5{fill:#8dc640;}.cls-6{fill:#484848;}</style></defs><title>3e9a0894-1fb6-4d5a-8ff4-b62928e92b6a</title><path class="cls-1" d="M563,266V646H51V470c1.75,3.2,3.49,6.41,5.26,9.6,6.43,11.56,12.71,23.21,19.37,34.65,5.12,8.79,12.49,14,23.29,13.81,14-.28,28-.15,42-.06,10.05.07,17-5.23,21.75-13.25,7.1-11.93,13.53-24.26,20.33-36.37,5.64-10,5.38-19.78-.49-29.72-6.64-11.24-12.94-22.67-19.25-34.1-4.89-8.88-12-14.35-22.34-14.49-14.15-.19-28.32.09-42.47-.11-10-.14-17,4.84-22.13,12.64-3.63,5.51-6.42,11.57-9.64,17.36Q58.86,444,51,458V148H402a29.15,29.15,0,0,1-3.88,1.74c-8.79,2.54-16,7.4-20.53,15.34q-21.21,37.26-41.91,74.79c-5.95,10.79-6.18,22.36-.4,33.06,13.73,25.42,27.94,50.61,42.41,75.62,6.3,10.9,16.38,16.58,29.17,16.62,27.15.08,54.29.19,81.43-.05,12.68-.1,22.7-5.94,29.11-16.86,9.07-15.46,17.7-31.17,26.39-46.85C550.29,289.66,556.6,277.81,563,266ZM262.06,645v0c10,0,20,0,30,0,10.78,0,18.5-5.11,23.63-14.28,3.67-6.56,6.81-13.42,10.52-20,6.41-11.31,13.46-22.28,19.49-33.79,4.28-8.17,4.52-16.87-.45-25.26-3.29-5.55-6.25-11.29-9.39-16.92q-10-18-20.11-36c-5.5-9.81-14.07-14.37-25.12-14.41-17.82-.06-35.64,0-53.46,0-10.94,0-20.34,3.19-26,13.06-10.32,17.91-20.23,36-30.39,54.06-4.69,8.33-5.14,17-.7,25.23q15.35,28.4,31.68,56.23a23.32,23.32,0,0,0,21.35,12.06C242.73,645,252.39,645,262.06,645Zm.75-358.24v0c-9.66,0-19.32,0-29,0s-17.14,4.54-22.41,12.53c-2.37,3.57-4.26,7.45-6.36,11.2-7.84,14-15.63,28.11-23.54,42.11-3.83,6.8-5.89,13.79-2.85,21.4A99.48,99.48,0,0,0,184,385.15c9.21,16.69,18.2,33.51,27.95,49.89,4.52,7.59,12.05,11.84,21.17,11.92,19.65.18,39.3.36,58.95,0,9.56-.17,17.68-4.12,22.62-12.87q15.08-26.64,30-53.38c4.65-8.35,5.74-17.19,1.11-25.73-10.05-18.5-20.41-36.83-30.92-55.07-5-8.68-12.95-13-23-13.11C282.13,286.72,272.47,286.79,262.81,286.79Zm147,177.36v-51.5H398.07V575.59h12V570c0-25.33-.06-50.66,0-76,.05-12.66,5.68-20.45,17.73-24.07a81,81,0,0,1,44.29-.53C486.23,473.1,492,481.28,492,496q0,37.24,0,74.49v5h12.67c0-27.59.24-54.74-.09-81.89-.21-17.28-10.49-30.37-27.16-35.39a91.12,91.12,0,0,0-46.9-1.42C423.7,458.29,417.26,461.44,409.84,464.15Z" transform="translate(-51 -148)"/><path class="cls-2" d="M563,266c-6.4,11.81-12.71,23.66-19.21,35.41-8.69,15.68-17.32,31.39-26.39,46.85C511,359.18,501,365,488.29,365.12c-27.14.24-54.28.13-81.43.05-12.79,0-22.87-5.72-29.17-16.62-14.47-25-28.68-50.2-42.41-75.62-5.78-10.7-5.55-22.27.4-33.06q20.69-37.55,41.91-74.79c4.52-7.94,11.74-12.8,20.53-15.34A29.15,29.15,0,0,0,402,148h91c.6.5,1.13,1.31,1.8,1.44,11.83,2.33,19.37,9.73,25,20,12,22,24.35,43.77,36.55,65.64L563,247Z" transform="translate(-51 -148)"/><path class="cls-3" d="M51,458q7.83-14,15.65-28c3.22-5.79,6-11.85,9.64-17.36,5.15-7.8,12.14-12.78,22.13-12.64,14.15.2,28.32-.08,42.47.11,10.37.14,17.45,5.61,22.34,14.49,6.31,11.43,12.61,22.86,19.25,34.1,5.87,9.94,6.13,19.68.49,29.72-6.8,12.11-13.23,24.44-20.33,36.37-4.77,8-11.7,13.32-21.75,13.25-14-.09-28-.22-42,.06-10.8.21-18.17-5-23.29-13.81C69,502.81,62.69,491.16,56.26,479.6c-1.77-3.19-3.51-6.4-5.26-9.6Z" transform="translate(-51 -148)"/><path class="cls-1" d="M563,247l-6.66-11.91c-12.2-21.87-24.55-43.66-36.55-65.64-5.62-10.28-13.16-17.68-25-20-.67-.13-1.2-.94-1.8-1.44h70Z" transform="translate(-51 -148)"/><path class="cls-4" d="M262.06,645c-9.67,0-19.33-.08-29,0A23.32,23.32,0,0,1,211.72,633Q195.37,605.18,180,576.76c-4.44-8.22-4-16.9.7-25.23,10.16-18,20.07-36.15,30.39-54.06,5.69-9.87,15.09-13.1,26-13.06,17.82.07,35.64,0,53.46,0,11.05,0,19.62,4.6,25.12,14.41q10.06,18,20.11,36c3.14,5.63,6.1,11.37,9.39,16.92,5,8.39,4.73,17.09.45,25.26-6,11.51-13.08,22.48-19.49,33.79-3.71,6.55-6.85,13.41-10.52,20-5.13,9.17-12.85,14.31-23.63,14.28-10,0-20,0-30,0Z" transform="translate(-51 -148)"/><path class="cls-5" d="M262.81,286.79c9.66,0,19.32-.07,29,0,10.06.09,18,4.43,23,13.11,10.51,18.24,20.87,36.57,30.92,55.07,4.63,8.54,3.54,17.38-1.11,25.73q-14.89,26.75-30,53.38c-4.94,8.75-13.06,12.7-22.62,12.87-19.65.35-39.3.17-58.95,0-9.12-.08-16.65-4.33-21.17-11.92-9.75-16.38-18.74-33.2-27.95-49.89a99.48,99.48,0,0,1-5.29-11.08c-3-7.61-1-14.6,2.85-21.4,7.91-14,15.7-28.07,23.54-42.11,2.1-3.75,4-7.63,6.36-11.2,5.27-8,12.66-12.48,22.41-12.53s19.32,0,29,0Z" transform="translate(-51 -148)"/><path class="cls-6" d="M409.84,464.15c7.42-2.71,13.86-5.86,20.66-7.4a91.12,91.12,0,0,1,46.9,1.42c16.67,5,27,18.11,27.16,35.39.33,27.15.09,54.3.09,81.89H492v-5q0-37.25,0-74.49c0-14.7-5.74-22.88-19.87-26.56a81,81,0,0,0-44.29.53c-12.05,3.62-17.68,11.41-17.73,24.07-.1,25.33,0,50.66,0,76v5.58h-12V412.65h11.77Z" transform="translate(-51 -148)"/></svg>