<svg xmlns="http://www.w3.org/2000/svg" viewBox="0 0 256 256">
  <path d="M128 0C57.3 0 0 57.3 0 128s57.3 128 128 128 128-57.3 128-128S198.7 0 128 0z" fill="#D33833"/>
  <path d="M128 20c59.7 0 108 48.3 108 108s-48.3 108-108 108S20 187.7 20 128 68.3 20 128 20z" fill="#EF3430"/>
  <g fill="#fff">
    <path d="M168.8 108.8c0 22.5-18.2 40.8-40.8 40.8s-40.8-18.2-40.8-40.8S105.5 68 128 68s40.8 18.2 40.8 40.8z"/>
    <rect x="108" y="148" width="40" height="48" rx="6"/>
  </g>
  <g fill="#335061">
    <circle cx="112" cy="104" r="8"/>
    <circle cx="144" cy="104" r="8"/>
    <path d="M112 124c0 0 8 12 32 0" stroke="#335061" stroke-width="3" fill="none" stroke-linecap="round"/>
  </g>
</svg>
