<svg xmlns="http://www.w3.org/2000/svg" viewBox="20 188 110 125">
  <rect x="25" y="299.521" fill="#41BF47" width="100.38" height="7.705"/>
  <path fill="#41BF47" d="M74.993,278.59c-23.697,0.013-42.919-19.186-42.932-42.884c-0.013-23.697,19.186-42.919,42.884-42.932c23.697-0.013,42.919,19.186,42.932,42.884l0,0C117.856,259.341,98.676,278.543,74.993,278.59z M74.993,200.99c-19.18-0.017-34.743,15.518-34.759,34.699s15.518,34.743,34.699,34.759c19.18,0.017,34.743-15.518,34.759-34.699c0-0.002,0-0.004,0-0.006v-0.061c-0.04-19.144-15.555-34.65-34.699-34.68V200.99z"/>
</svg>
