<svg xmlns="http://www.w3.org/2000/svg" viewBox="0 0 256 256" fill="none">
  <rect width="256" height="256" rx="32" fill="#1A1A2E"/>
  <path d="M128 40C79.4 40 40 79.4 40 128s39.4 88 88 88 88-39.4 88-88-39.4-88-88-88zm0 160c-39.7 0-72-32.3-72-72s32.3-72 72-72 72 32.3 72 72-32.3 72-72 72z" fill="#00D1A0"/>
  <path d="M128 72c-30.9 0-56 25.1-56 56s25.1 56 56 56 56-25.1 56-56-25.1-56-56-56zm0 96c-22.1 0-40-17.9-40-40s17.9-40 40-40 40 17.9 40 40-17.9 40-40 40z" fill="#00D1A0"/>
  <path d="M148 118h-12v-12c0-4.4-3.6-8-8-8s-8 3.6-8 8v12h-12c-4.4 0-8 3.6-8 8s3.6 8 8 8h12v12c0 4.4 3.6 8 8 8s8-3.6 8-8v-12h12c4.4 0 8-3.6 8-8s-3.6-8-8-8z" fill="#00D1A0"/>
</svg>
