<svg xmlns="http://www.w3.org/2000/svg" viewBox="0 0 256 256" fill="none">
  <rect width="256" height="256" rx="40" fill="#1A73E8"/>
  <path d="M128 48C83.8 48 48 83.8 48 128s35.8 80 80 80 80-35.8 80-80-35.8-80-80-80zm0 144c-35.3 0-64-28.7-64-64s28.7-64 64-64 64 28.7 64 64-28.7 64-64 64z" fill="#fff"/>
  <path d="M128 80c-26.5 0-48 21.5-48 48s21.5 48 48 48 48-21.5 48-48-21.5-48-48-48zm0 80c-17.7 0-32-14.3-32-32s14.3-32 32-32 32 14.3 32 32-14.3 32-32 32z" fill="#fff" opacity="0.7"/>
  <path d="M120 108v40l12 8V108h-12z" fill="#fff"/>
  <path d="M136 116v32l-12-8v-24h12z" fill="#fff" opacity="0.8"/>
</svg>
