<svg xmlns="http://www.w3.org/2000/svg"
     viewBox="0 0 36 34"
     aria-label="Render"
     width="100"
     height="100"
     class="render-logo-fill">

  <!-- White background -->
  <rect x="0" y="0" width="36" height="36" fill="white"/>

  <!-- Logo -->
  <path d="M26.827.01c-4.596-.216-8.461 3.107-9.12 7.487-.027.203-.066.4-.099.596-1.025 5.454-5.797 9.584-11.53 9.584a11.67 11.67 0 0 1-5.634-1.442.298.298 0 0 0-.444.262v18.854h17.602V22.097c0-2.439 1.971-4.419 4.4-4.419h4.4c4.982 0 8.99-4.15 8.795-9.197C35.02 3.937 31.35.226 26.827.01Z"/>
</svg>
