<svg xmlns="http://www.w3.org/2000/svg" viewBox="0 0 34.46 30.52" fill="none">
  <path fill="#222452" fill-rule="evenodd" clip-rule="evenodd" d="m 15.897279,4.8160412 c -0.5489,0.7763 -0.3695,1.85 0.402,2.4056 l 9.3448,6.7302998 c 0.2264,0.1631 0.2321,0.4982 0.0112,0.6688 l -7.8076,6.0313 c -0.7441,0.5748 -0.8946,1.6377 -0.3394,2.3964 0.5744,0.785 1.6819,0.9441 2.4541,0.3526 l 8.7877,-6.7322 c 0.7416,-0.5681 1.1764,-1.4491 1.1764,-2.3833 0,-0.9667 -0.4655,-1.8743 -1.2506,-2.4383 l -10.3537,-7.4378998 c -0.781,-0.5611 -1.8696,-0.3785 -2.4249,0.4067 z"/>
  <path fill="#222452" fill-rule="evenodd" clip-rule="evenodd" d="m 4.8889391,5.4648412 c -0.32471,0.4776 -0.49835,1.0417 -0.49835,1.6192 V 23.450941 c 0,0.5558 0.62744,0.8798 1.08062,0.558 l 1.65271,-1.1734 c 0.45727,-0.3246 0.72894,-0.8507 0.72894,-1.4115 V 9.2385412 c 0,-0.3381 0.38118,-0.5359 0.65763,-0.3411 l 7.3306899,5.1647998 c 0.2386,0.1681 0.2353,0.5229 -0.0063,0.6866 l -2.344,1.5879 c -0.7984,0.5409 -0.9968,1.632 -0.4401,2.4193 0.5455,0.7714 1.6108,0.9591 2.387,0.4206 l 3.5679,-2.4753 c 0.7645,-0.5303 1.2205,-1.4017 1.2205,-2.3321 0,-0.9123 -0.4385,-1.769 -1.1786,-2.3024 L 8.4800491,4.4489412 c -1.14744,-0.701 -2.64312,-0.3782 -3.39923,0.7338 z"/>
</svg>
