<svg xmlns="http://www.w3.org/2000/svg" viewBox="0 0 512 512">
<path fill="#FAAF3F" d="M233.151428,461.060242 C232.151917,438.240875 220.972809,421.997314 201.410751,410.732788 C183.016098,400.140533 163.149887,394.210144 142.374344,391.065826 C128.993011,389.040619 115.550735,387.180969 102.066940,386.131897 C86.431747,384.915466 70.725288,384.326843 55.041630,384.136780 C46.535828,384.033752 38.015747,385.363403 29.496302,385.964478 C27.194244,386.126923 24.871002,385.989075 21.753777,385.989075 C20.334076,371.733826 18.932682,357.662384 17.477968,343.055573 C29.688677,342.686768 41.058540,342.183197 52.432926,342.040833 C66.255432,341.867798 80.106911,341.480225 93.899132,342.148987 C106.956352,342.782135 120.056099,344.034302 132.950653,346.150604 C149.405350,348.851166 165.856339,351.995148 181.970108,356.235565 C198.552338,360.599213 214.412079,367.260193 228.731277,376.980255 C237.939713,383.231049 246.947357,389.770660 253.546707,399.005341 C254.608124,400.490601 255.926468,401.792267 257.272430,403.348022 C266.005066,392.227234 276.038666,383.365112 287.445526,376.062317 C301.449005,367.097260 316.669800,360.699524 332.555634,356.138489 C345.124573,352.529755 357.946136,349.671753 370.795959,347.214996 C379.764679,345.500305 388.947693,344.673981 398.075958,344.079590 C412.901154,343.114288 427.756165,342.237152 442.605408,342.108673 C459.687988,341.960876 476.779938,342.606445 493.860168,343.147919 C494.939789,343.182159 496.913177,345.356445 496.845703,346.433350 C496.313171,354.933594 495.422577,363.412842 494.564606,371.890717 C494.094391,376.537415 493.474213,381.168945 492.874878,386.199829 C482.213074,385.459900 472.064972,384.443085 461.895905,384.146881 C453.468170,383.901306 445.015533,384.499023 436.574463,384.741119 C435.590485,384.769348 434.609589,384.992706 433.627655,384.989868 C413.063599,384.930237 392.761719,387.253235 372.526520,390.888947 C353.628418,394.284454 335.248749,399.125397 318.183685,408.034088 C303.228210,415.841583 290.569397,426.203857 285.134644,442.967499 C283.354034,448.459900 282.991119,454.411896 281.451996,460.585266 C264.999908,461.031281 249.075668,461.045776 233.151428,461.060242z"/>
<path fill="#FAAF3F" d="M226.999756,276.927307 C225.979706,256.358093 233.927917,239.082031 244.023788,222.526886 C247.535522,216.768341 251.419037,211.236526 256.020355,204.254318 C262.531708,213.158722 268.430664,220.856049 273.927277,228.830673 C281.805084,240.259979 287.569000,252.937790 289.529419,266.539856 C291.551453,280.569641 291.244080,295.041199 279.550110,305.854736 C267.070496,317.394836 249.619675,317.356323 238.005920,306.161255 C230.286697,298.720337 226.552277,288.575592 226.999756,276.927307z"/>
<path fill="#FAAF3F" d="M263.234375,57.729126 C276.603973,73.596519 287.318146,90.753525 290.652832,111.019745 C292.815796,124.165031 291.490906,137.518250 281.292206,148.312592 C268.731171,161.607254 243.433792,160.793045 233.321014,140.887146 C226.029755,126.535118 226.536835,111.657509 230.215912,96.872948 C234.394150,80.082420 242.912704,65.117310 252.614761,50.871490 C253.145157,50.092686 254.063782,49.578285 255.324295,48.489357 C257.941895,51.558441 260.462067,54.513268 263.234375,57.729126z"/>
<path fill="#FAAF3F" d="M342.705383,141.702759 C350.835602,138.648468 358.473877,134.556274 366.550201,133.315903 C377.098206,131.695892 388.019531,131.725052 398.729889,132.194397 C407.102051,132.561249 415.397522,134.679214 424.990143,136.222290 C420.941681,143.896652 417.721649,151.279694 413.371429,157.922623 C407.958374,166.188568 402.381531,174.600082 395.500793,181.596893 C383.047150,194.260651 368.437897,203.408691 349.458282,200.941071 C336.357758,199.237823 324.464844,189.212509 323.893829,173.565994 C323.356171,158.833313 330.948486,149.377762 342.705383,141.702759z"/>
<path fill="#FAAF3F" d="M109.751038,171.256973 C101.305466,160.476303 94.866188,148.971741 89.694511,136.738724 C106.765579,131.569855 123.924660,130.931900 140.958496,132.219147 C158.402603,133.537399 174.388763,139.252716 185.056442,154.588760 C195.369781,169.415405 190.786133,194.379150 168.770309,199.947250 C152.368774,204.095413 138.176529,198.609787 125.830772,188.125549 C120.034653,183.203400 115.250092,177.090057 109.751038,171.256973z"/>
<path fill="#FAAF3F" d="M391.347504,293.000244 C378.715424,291.000488 369.744385,284.531067 365.143097,273.084015 C360.343872,261.144501 365.771149,245.611465 376.541473,238.111771 C386.440552,231.218796 397.292053,228.223434 409.431000,227.823868 C429.017273,227.179153 447.074402,232.667847 464.975952,239.433823 C468.643036,240.819809 469.995148,241.850601 466.702576,246.156494 C455.645081,260.617157 443.464722,273.653717 428.037872,283.576019 C416.906799,290.735321 405.012146,294.191956 391.347504,293.000244z"/>
<path fill="#FAAF3F" d="M93.348511,287.739563 C77.576195,279.897919 65.479561,268.283875 54.643448,255.184219 C51.837376,251.791992 49.274342,248.186478 46.318611,244.934372 C44.172497,242.573074 44.744926,241.153809 47.368408,240.285858 C57.918137,236.795609 68.309425,232.422409 79.136368,230.291153 C89.361458,228.278336 100.108910,227.697983 110.537430,228.231293 C125.480042,228.995453 138.979126,235.067413 146.438568,248.397705 C155.059052,263.802856 150.536392,283.240173 130.627289,290.850128 C118.156334,295.616943 105.629250,293.579559 93.348511,287.739563z"/>
</svg>
