<svg xmlns="http://www.w3.org/2000/svg" viewBox="0 0 72 66" fill="currentColor">
  <path d="M29,2.26a4.67,4.67,0,0,0-8,0L14.42,13.53A32.21,32.21,0,0,1,32.17,40.19H27.55A27.68,27.68,0,0,0,12.09,17.47L6,28a15.92,15.92,0,0,1,9.23,12.17H4.62A.76.76,0,0,1,4,39.06l2.94-5a10.74,10.74,0,0,0-3.36-1.9l-2.91,5a4.54,4.54,0,0,0,1.69,6.24A4.66,4.66,0,0,0,4.62,44H19.15a19.4,19.4,0,0,0-8-17.31l2.31-4A23.87,23.87,0,0,1,23.76,44H36.07A35.88,35.88,0,0,0,16.41,8.8l6.43-11a.77.77,0,0,1,1.1-.27c.13.08.23.18.33.28L67.47,64.1a.77.77,0,0,1-.27,1.07.75.75,0,0,1-.39.1h-9.1a.77.77,0,0,1-.66-.39l-2.54-4.4a.76.76,0,0,1,.28-1,.75.75,0,0,1,.39-.1h4.55L28.14,4.77A4.58,4.58,0,0,0,29,2.26Z"/>
</svg>
