<svg viewBox="0 0 512 512" xmlns="http://www.w3.org/2000/svg" fill-rule="evenodd" clip-rule="evenodd" stroke-linejoin="round" stroke-miterlimit="2"><path d="M295.78 58.193a46.797 46.797 0 00-40.042-22.624 46.797 46.797 0 00-40.041 22.624L149.828 171.01c102.267 51.063 170.027 152.829 177.685 266.877h-46.248c-7.648-97.761-66.63-184.442-154.761-227.436L65.541 315.86c49.491 22.192 84.367 68.18 92.396 121.826H51.727c-3.965-.28-7.068-3.614-7.068-7.588 0-1.231.29-2.433.86-3.524l29.431-50.052a107.422 107.422 0 00-33.634-19.02l-29.13 50.053a45.41 45.41 0 00-6.187 22.893c0 16.367 8.849 31.523 23.104 39.571a46.665 46.665 0 0022.623 6.007h145.451c5.486-67.72-24.945-133.58-80.083-173.28l23.124-40.042c69.603 47.8 108.883 129.084 103.107 213.322h123.228c5.836-127.633-56.859-249.13-164.27-318.331l46.748-80.083c2.153-3.614 6.887-4.825 10.511-2.703 5.306 2.903 203.111 348.062 206.815 352.066a7.623 7.623 0 01.961 3.704c0 4.174-3.433 7.607-7.608 7.607H411.9c.601 12.744.601 25.457 0 38.14h48.15c25.207 0 45.948-20.741 45.948-45.948v-.2a44.95 44.95 0 00-6.206-22.824L295.78 58.193z" fill="#362d59" fill-rule="nonzero"/></svg>
