<svg role="img" viewBox="0 0 24 24" xmlns="http://www.w3.org/2000/svg" id="Statuspage--Streamline-Simple-Icons" height="24" width="24">
  <desc>
    Statuspage Streamline Icon: https://streamlinehq.com
  </desc>
  <title>Statuspage</title>
  <path d="M12.008 9.597a5.623 5.623 0 1 1 0 11.245 5.623 5.623 0 0 1 0 -11.245zM0.154 8.717l3.02 3.574a0.639 0.639 0 0 0 0.913 0.068c4.885 -4.379 10.97 -4.379 15.84 0a0.642 0.642 0 0 0 0.916 -0.068l3.006 -3.574a0.646 0.646 0 0 0 -0.075 -0.906c-7.1 -6.204 -16.462 -6.204 -23.555 0a0.65 0.65 0 0 0 -0.065 0.906z" fill="#000000" stroke-width="1"></path>
</svg>