<svg xmlns="http://www.w3.org/2000/svg" viewBox="0 0 24 24" fill="none">
  <path d="M20.625 6.25h-2.25v-.875A1.375 1.375 0 0 0 17 4h-3.375a1.375 1.375 0 0 0-1.375 1.375v.875h-2.25A1.375 1.375 0 0 0 8.625 7.625v7.75A1.375 1.375 0 0 0 10 16.75h5.25v2.625A1.375 1.375 0 0 0 16.625 20.75h4A1.375 1.375 0 0 0 22 19.375V7.625A1.375 1.375 0 0 0 20.625 6.25z" fill="#5059C9"/>
  <circle cx="19.5" cy="3.5" r="1.75" fill="#5059C9"/>
  <circle cx="15.25" cy="2.75" r="2.5" fill="#7B83EB"/>
  <path d="M16.625 6.25H3.375A1.375 1.375 0 0 0 2 7.625v8.25a5.125 5.125 0 0 0 5.125 5.125h3.75a5.125 5.125 0 0 0 5.125-5.125V7.625A1.375 1.375 0 0 0 16.625 6.25z" fill="#7B83EB"/>
  <path d="M11.375 9.75H8.625v5.5h-1.25v-5.5H4.625v-1.125h6.75V9.75z" fill="white"/>
</svg>
