<svg width="1200" height="560" viewBox="0 0 1200 560" fill="none" xmlns="http://www.w3.org/2000/svg" role="img" aria-labelledby="title desc">
  <title id="title">SuperPlane repository activity</title>
  <desc id="desc">A yellow and black dashboard showing recent commits, open issues, open pull requests and top contributors.</desc>
  <defs>
    <linearGradient id="bg" x1="0" y1="0" x2="1200" y2="560" gradientUnits="userSpaceOnUse">
      <stop stop-color="#11110D"/>
      <stop offset="0.52" stop-color="#171610"/>
      <stop offset="1" stop-color="#211D0D"/>
    </linearGradient>
    <linearGradient id="yellow" x1="0" y1="0" x2="1" y2="1">
      <stop stop-color="#FFE995"/>
      <stop offset="1" stop-color="#F4D35E"/>
    </linearGradient>
    <pattern id="grid" width="28" height="28" patternUnits="userSpaceOnUse">
      <path d="M28 0H0V28" stroke="#F4D35E" stroke-opacity="0.035"/>
    </pattern>
    <filter id="glow" x="-30%" y="-30%" width="160%" height="160%">
      <feGaussianBlur stdDeviation="8" result="blur"/>
      <feMerge><feMergeNode in="blur"/><feMergeNode in="SourceGraphic"/></feMerge>
    </filter>
  </defs>

  <rect x="1" y="1" width="1198" height="558" rx="22" fill="url(#bg)" stroke="#3B382A" stroke-width="2"/>
  <rect x="2" y="2" width="1196" height="556" rx="21" fill="url(#grid)"/>

  <g font-family="-apple-system, BlinkMacSystemFont, Segoe UI, sans-serif">
    <path d="M39 53L55 37L71 53M55 38V64M47 45L43 61M63 45L67 61" stroke="#F4D35E" stroke-width="3" stroke-linecap="round"/>
    <text x="88" y="55" fill="#F8F5E9" font-size="28" font-weight="700">Repository activity</text>
    <text x="1160" y="52" fill="#A9A596" font-size="14" text-anchor="end">Last updated Sep 1, 2026</text>

    <rect x="36" y="82" width="1128" height="70" rx="12" fill="#171712" stroke="#4B4633"/>
    <circle cx="64" cy="117" r="8" fill="#F4D35E" filter="url(#glow)"/>
    <text x="84" y="113" fill="#F4D35E" font-size="13" font-weight="700" letter-spacing="1.2">LAST 30 DAYS</text>
    <text x="84" y="135" fill="#F8F5E9" font-size="18" font-weight="650">242 commits across the SuperPlane project</text>
    <g transform="translate(830 103)">
      <rect x="0" y="12" width="11" height="11" rx="2" fill="#4C4220"/><rect x="16" y="8" width="11" height="15" rx="2" fill="#7B6929"/>
      <rect x="32" y="3" width="11" height="20" rx="2" fill="#C7A93F"/><rect x="48" y="11" width="11" height="12" rx="2" fill="#7B6929"/>
      <rect x="64" y="7" width="11" height="16" rx="2" fill="#A88E33"/><rect x="80" y="1" width="11" height="22" rx="2" fill="#F4D35E"/>
      <rect x="96" y="10" width="11" height="13" rx="2" fill="#7B6929"/><rect x="112" y="5" width="11" height="18" rx="2" fill="#C7A93F"/>
      <rect x="128" y="13" width="11" height="10" rx="2" fill="#4C4220"/><rect x="144" y="8" width="11" height="15" rx="2" fill="#A88E33"/>
      <rect x="160" y="2" width="11" height="21" rx="2" fill="#F4D35E"/><rect x="176" y="6" width="11" height="17" rx="2" fill="#C7A93F"/>
      <rect x="192" y="14" width="11" height="9" rx="2" fill="#4C4220"/><rect x="208" y="9" width="11" height="14" rx="2" fill="#7B6929"/>
      <rect x="224" y="4" width="11" height="19" rx="2" fill="#D9BB4D"/><rect x="240" y="12" width="11" height="11" rx="2" fill="#675824"/>
      <rect x="256" y="7" width="11" height="16" rx="2" fill="#A88E33"/><rect x="272" y="1" width="11" height="22" rx="2" fill="#F4D35E"/>
    </g>

    <g>
      <rect x="36" y="172" width="352" height="92" rx="12" fill="#141410" stroke="#343225"/>
      <text x="58" y="202" fill="#F4D35E" font-size="12" font-weight="700" letter-spacing="1">OPEN ISSUES</text>
      <text x="58" y="239" fill="#F8F5E9" font-size="32" font-weight="750">268</text>
      <text x="357" y="238" fill="#898678" font-size="13" text-anchor="end">Track work</text>

      <rect x="424" y="172" width="352" height="92" rx="12" fill="#141410" stroke="#343225"/>
      <text x="446" y="202" fill="#F4D35E" font-size="12" font-weight="700" letter-spacing="1">OPEN PULL REQUESTS</text>
      <text x="446" y="239" fill="#F8F5E9" font-size="32" font-weight="750">309</text>
      <text x="745" y="238" fill="#898678" font-size="13" text-anchor="end">Review changes</text>

      <rect x="812" y="172" width="352" height="92" rx="12" fill="#141410" stroke="#343225"/>
      <text x="834" y="202" fill="#F4D35E" font-size="12" font-weight="700" letter-spacing="1">COMMITS</text>
      <text x="834" y="239" fill="#F8F5E9" font-size="32" font-weight="750">242</text>
      <text x="1133" y="238" fill="#898678" font-size="13" text-anchor="end">Last 30 days</text>
    </g>

    <rect x="36" y="284" width="1128" height="170" rx="12" fill="#12120E" stroke="#343225"/>
    <text x="58" y="316" fill="#F4D35E" font-size="13" font-weight="700" letter-spacing="1">COMMIT ACTIVITY</text>
    <text x="1142" y="316" fill="#898678" font-size="12" text-anchor="end">Last 14 days</text>
    <path d="M58 423H1142" stroke="#343225"/>
    <g fill="url(#yellow)">
      <rect x="80" y="392" width="42" height="31" rx="4" opacity="0.72"/>
      <rect x="154" y="354" width="42" height="69" rx="4" opacity="0.88"/>
      <rect x="228" y="371" width="42" height="52" rx="4" opacity="0.82"/>
      <rect x="302" y="406" width="42" height="17" rx="4" opacity="0.58"/>
      <rect x="376" y="406" width="42" height="17" rx="4" opacity="0.58"/>
      <rect x="450" y="385" width="42" height="38" rx="4" opacity="0.74"/>
      <rect x="524" y="357" width="42" height="66" rx="4" opacity="0.87"/>
      <rect x="598" y="375" width="42" height="48" rx="4" opacity="0.80"/>
      <rect x="672" y="323" width="42" height="100" rx="4"/>
      <rect x="746" y="388" width="42" height="35" rx="4" opacity="0.72"/>
      <rect x="820" y="416" width="42" height="7" rx="4" opacity="0.50"/>
      <rect x="894" y="388" width="42" height="35" rx="4" opacity="0.72"/>
      <rect x="968" y="399" width="42" height="24" rx="4" opacity="0.64"/>
      <rect x="1042" y="410" width="42" height="13" rx="4" opacity="0.54"/>
    </g>

    <rect x="36" y="474" width="1128" height="58" rx="12" fill="#101713" stroke="#29583D"/>
    <path d="M60 501C60 494 70 492 70 500C70 492 80 494 80 501C80 508 70 514 70 514C70 514 60 508 60 501Z" stroke="#58D68D" stroke-width="2"/>
    <text x="94" y="509" fill="#58D68D" font-size="13" font-weight="700" letter-spacing="0.8">TOP CONTRIBUTORS</text>
    <text x="300" y="508" fill="#B9F6CF" font-size="14">Pedro Leão</text>
    <text x="492" y="508" fill="#B9F6CF" font-size="14">Igor Šarčević</text>
    <text x="704" y="508" fill="#B9F6CF" font-size="14">Lucas Pinheiro</text>
    <text x="912" y="508" fill="#B9F6CF" font-size="14">Aleksandar Mitrovic</text>
  </g>
</svg>
